<svg width="118" height="28" viewBox="0 0 118 28" fill="none" xmlns="http://www.w3.org/2000/svg"><g clip-path="url(#clip0_2144_2235)"><path d="M41.1739 21.8928V1.75064C41.1739 1.61064 41.0603 1.49609 40.9215 1.49609H37.2775C37.1437 1.49609 37.0377 1.603 37.0251 1.73791C36.8737 3.71573 35.4453 5.32955 33.5703 5.74955C33.4542 5.775 33.3684 5.87682 33.3684 5.999V9.64409C33.3684 9.78409 33.4819 9.89864 33.6207 9.89864H36.2579C36.3967 9.89864 36.5103 10.0132 36.5103 10.1532V21.8954C36.5103 22.0354 36.3967 22.1499 36.2579 22.1499H33.5652C33.4264 22.1499 33.3129 22.2645 33.3129 22.4045V26.2175C33.3129 26.3575 33.4264 26.4721 33.5652 26.4721H43.1575C43.2963 26.4721 43.4098 26.3575 43.4098 26.2175V22.4045C43.4098 22.2645 43.2963 22.1499 43.1575 22.1499H41.4237C41.2849 22.1499 41.1714 22.0354 41.1714 21.8954L41.1739 21.8928Z" fill="#4CB748"/><path d="M55.4975 18.2863L56.9132 17.8918C60.2923 16.9474 64.9206 15.6518 64.9206 9.84052C64.9206 4.70888 61.3194 1.52197 55.5227 1.52197C49.726 1.52197 46.0592 4.59943 45.5999 9.63179C45.5873 9.77943 45.7059 9.90924 45.8523 9.90924L50.0793 9.90415C50.203 9.90415 50.3039 9.81252 50.3266 9.69034C50.7455 7.28488 52.5777 5.83397 55.3158 5.83397C58.2129 5.83397 60.2368 7.48088 60.2368 9.84052C60.2368 12.4878 57.8268 13.2234 54.7757 14.1576L53.7663 14.4682C50.2534 15.5474 45.4409 17.0238 45.4409 22.9292V26.2154C45.4409 26.3554 45.5545 26.47 45.6933 26.47H64.59C64.7288 26.47 64.8424 26.3554 64.8424 26.2154V22.4558C64.8424 22.3158 64.7288 22.2012 64.59 22.2012H50.4351C50.2736 22.2012 50.1525 22.0485 50.1878 21.8882C50.6774 19.6278 53.2313 18.9176 55.4975 18.2863Z" fill="#4CB748"/><path d="M104.592 1.26794C97.3294 1.26794 91.8531 6.81958 91.8531 14.181V14.2141C91.8531 17.4265 93.1503 20.5981 95.4114 22.917C97.7912 25.3581 101.039 26.7021 104.559 26.7021C111.739 26.7021 117.362 21.1149 117.362 13.985C117.362 6.85522 111.752 1.26794 104.592 1.26794ZM112.269 14.0181C112.269 18.017 109.422 22.1534 104.658 22.1534C100.264 22.1534 96.9483 18.6407 96.9483 13.985V13.9519C96.9483 10.0065 99.6385 5.81413 104.625 5.81413C109.612 5.81413 112.269 9.98358 112.269 14.0156V14.0181Z" fill="#4CB748"/><path d="M89.3475 11.842H80.7395C80.6512 11.842 80.5704 11.8879 80.525 11.9642L78.0544 16.0395C77.9509 16.21 78.0721 16.4264 78.2689 16.4264H84.8101C84.9489 16.4264 85.0625 16.541 85.0625 16.681L85.0549 24.6253C85.0549 24.8264 85.2744 24.9486 85.441 24.8417L89.4813 22.2784C89.5545 22.2326 89.5999 22.1511 89.5999 22.062V12.0966C89.5999 11.9566 89.4863 11.842 89.3475 11.842Z" fill="#4CB748"/><path d="M85.7876 3.03099C83.8773 1.91099 81.6363 1.26953 79.2136 1.26953C71.9507 1.26953 66.4745 6.82117 66.4745 14.1826V14.2157C66.4745 17.4281 67.7716 20.5997 70.0328 22.9186C73.5784 26.5535 77.9216 26.8183 80.208 26.6579C80.3392 26.6477 80.4401 26.5357 80.4401 26.4033V22.3688C80.4401 22.2161 80.3089 22.1015 80.16 22.1168C76.0011 22.5317 71.5696 19.4797 71.5696 13.9841V13.951C71.5696 10.0055 74.2598 5.81571 79.2465 5.81571C80.8212 5.81571 82.1839 6.2688 83.3095 7.01717C83.4281 7.09608 83.5896 7.06553 83.6653 6.94335L85.8734 3.38735C85.9491 3.26517 85.9113 3.10226 85.7876 3.03099Z" fill="#4CB748"/><path fill-rule="evenodd" clip-rule="evenodd" d="M13.8798 0C21.5454 0 27.7597 6.26801 27.7597 14C27.7597 21.732 21.5454 28 13.8798 28C6.21421 28 0 21.732 0 14C0 6.26801 6.21421 0 13.8798 0ZM20.5571 20.263V8.17969H8.75167L5.86719 13.1331H15.6411L15.6335 23.2997L20.5571 20.263Z" fill="#4CB748"/></g><defs><clipPath id="clip0_2144_2235"><rect width="117.6" height="28" fill="white"/></clipPath></defs></svg>