<svg xmlns="http://www.w3.org/2000/svg" viewBox="0 0 422.32 74.71"><defs><style>.cls-1{fill:#f02841;}</style></defs><g id="Layer_2" data-name="Layer 2"><g id="Layer_1-2" data-name="Layer 1"><g id="Grupo_8022" data-name="Grupo 8022"><path id="Caminho_12640" data-name="Caminho 12640" class="cls-1" d="M398.5,44.69c-.55-.21-4.68-2-5.23-2.28-4.75-2.13-10.06-4.27-10.06-7.3a4.11,4.11,0,0,1,1.38-3.17A7.43,7.43,0,0,1,390,30.35a13.23,13.23,0,0,1,9.3,4.55L407,27.18a25.31,25.31,0,0,0-17.08-7.5c-12.18,0-18.79,7.16-19,14.25-.27,9,5.23,12.94,14.11,16.66,11.57,4.89,13.15,5.51,13.15,8.68a3.81,3.81,0,0,1-1.37,2.82,9.47,9.47,0,0,1-7.17,1.79,20,20,0,0,1-12-6.13L368.27,63a25.31,25.31,0,0,0,21.9,11.71c12.18,0,20-6.48,20-16.46C410.27,50.33,403.73,47,398.5,44.69Z"/><path id="Caminho_12641" data-name="Caminho 12641" class="cls-1" d="M285.24,19.62a27,27,0,0,0-15.57,4.89v-23H257.76v45.3h0v.27a27.55,27.55,0,1,0,27.61-27.47Zm0,43.1a15.57,15.57,0,1,1,15.07-16v.49a15.34,15.34,0,0,1-15.07,15.56Z"/><path id="Caminho_12642" data-name="Caminho 12642" class="cls-1" d="M43,24.51A27.5,27.5,0,1,0,55,47.17v-.28h0V1.52H43ZM27.45,62.72a15.57,15.57,0,0,1,0-31.12,15.26,15.26,0,0,1,15,15.5v.06A15.34,15.34,0,0,1,27.45,62.72Z"/><path id="Caminho_12643" data-name="Caminho 12643" class="cls-1" d="M203.57,19.62a24.16,24.16,0,0,0-24.16,24.14V73.19h11.91V43.72c0-6.74,5.51-12.94,12.26-12.94s12.25,6.2,12.25,12.94V73.19h11.91V43.79A24.16,24.16,0,0,0,203.6,19.62Z"/><path id="Caminho_12644" data-name="Caminho 12644" class="cls-1" d="M352.3,53.09a10.82,10.82,0,0,1-21.62,0v-32H318.77V51.91a22.72,22.72,0,0,0,45.44,0V21.07H352.3Z"/><path id="Caminho_12645" data-name="Caminho 12645" class="cls-1" d="M87.49,19.62a27.55,27.55,0,0,0,0,55.09,28,28,0,0,0,9-1.52c.35-.14.62-.21.89-.35.62-.21,1.17-.48,1.79-.76a2.29,2.29,0,0,0,.62-.27h0A27.83,27.83,0,0,0,111,61.48l-9.7-5.79a16.43,16.43,0,0,1-13.78,7.09,14.92,14.92,0,0,1-12.52-7l38-15.15C110,28.37,100.3,19.62,87.49,19.62Zm-15,26.17a15.27,15.27,0,0,1,15-14.25,13.13,13.13,0,0,1,10.12,4.2Z"/><rect id="Retângulo_2065" data-name="Retângulo 2065" class="cls-1" x="236.9" y="21.07" width="11.91" height="52.12"/><path id="Caminho_12646" data-name="Caminho 12646" class="cls-1" d="M145.4,19.62a27.55,27.55,0,1,0,27.54,27.55h0A27.58,27.58,0,0,0,145.4,19.62Zm0,43.1a15.57,15.57,0,1,1,15.07-16v.48A15.34,15.34,0,0,1,145.4,62.72Z"/><path id="Caminho_12647" data-name="Caminho 12647" class="cls-1" d="M419.36,68.44c0-1-.76-1.65-2-1.65h-2.27v5.09h1.1V70.23h.9l1.1,1.65h1.31l-1.24-1.79A1.82,1.82,0,0,0,419.36,68.44Zm-2,.76h-1.1V67.68h1.1c.55,0,.9.28.9.76a.8.8,0,0,1-.84.76Z"/><path id="Caminho_12648" data-name="Caminho 12648" class="cls-1" d="M417.09,64.17a5.24,5.24,0,1,0,5.23,5.23h0a5.22,5.22,0,0,0-5.22-5.23Zm0,9.5a4.27,4.27,0,1,1,4.2-4.33v.06a4.15,4.15,0,0,1-4,4.27Z"/><path id="Caminho_12649" data-name="Caminho 12649" class="cls-1" d="M242.82,0a7.3,7.3,0,0,0-7.3,7.3,7.3,7.3,0,0,0,14.6,0A7.3,7.3,0,0,0,242.82,0Z"/><path id="Caminho_12650" data-name="Caminho 12650" class="cls-1" d="M145.4,11.22a13.63,13.63,0,0,1,9.64,4l6-6a22.11,22.11,0,0,0-31.26,0l6,6A13.34,13.34,0,0,1,145.4,11.22Z"/></g></g></g></svg>