<svg width="160" height="22" viewBox="0 0 160 22" fill="none" xmlns="http://www.w3.org/2000/svg">
<g id="Plataforma 10 Logo">
<g id="Plataforma">
<path d="M19.9733 1.82969H15.6067V21.501H19.9733V1.82969Z" fill="#1F1F1F"/>
<path d="M44.7979 5.91356H43.7093V1.82969H39.3416V5.91356H38.2552V9.26908H39.3416L39.3547 21.501H43.7224L43.7093 9.26908H44.7979V5.91356Z" fill="#1F1F1F"/>
<path d="M63.0864 5.91685H61.9759V9.24714H63.0864V21.501H67.4529V9.24714H68.5197V5.91685H67.4617C67.5425 4.6839 68.8309 4.65758 69.6116 4.65758V1.57739C66.5335 1.57739 63.0864 1.66186 63.0864 5.91685Z" fill="#1F1F1F"/>
<path d="M76.3673 5.95086C71.0693 5.95086 68.5263 10.14 68.5263 13.6963V13.7226C68.5263 17.3063 71.0704 21.4955 76.3673 21.4955C81.6642 21.4955 84.2094 17.3063 84.2094 13.7226C84.2094 10.1389 81.6653 5.95086 76.3673 5.95086ZM76.3673 17.4127C74.4794 17.4127 72.8797 15.8583 72.8797 13.75V13.7237C72.8797 11.5902 74.4794 10.0347 76.3673 10.0347C78.2552 10.0347 79.8549 11.5891 79.8549 13.7237C79.8549 15.8583 78.2552 17.4127 76.3673 17.4127Z" fill="#1F1F1F"/>
<path d="M116.576 12.5643V21.501H112.275V12.3262C112.345 10.3199 109.697 9.25262 108.358 10.6962C107.803 11.2096 107.68 12.0388 107.68 12.8023V21.501H103.383V12.3262C103.454 10.3188 100.805 9.25262 99.4667 10.6962C98.9087 11.2117 98.7723 12.0454 98.7723 12.8122C98.7723 12.8933 98.7908 21.1927 98.7723 21.501H94.4636V5.90479H98.4862V7.46353C99.9177 4.75849 105.116 4.53253 106.661 8.01858C108.305 5.23785 112.291 4.31314 115.019 6.88215C116.368 8.33559 116.576 9.31405 116.576 12.5643Z" fill="#1F1F1F"/>
<path d="M93.3793 5.95086V10.3156C93.3793 10.4022 93.2821 10.4516 93.2112 10.4011C91.7895 9.41058 89.6504 10.4252 89.6504 12.3306V21.4999H85.3002V5.90479H89.6701V7.61381C90.0916 6.82182 90.8548 5.95086 93.3793 5.95086Z" fill="#1F1F1F"/>
<path d="M33.3285 7.32312C32.349 6.39183 30.9404 5.79839 28.939 5.79839C23.5962 5.79839 21.0313 10.0227 21.0313 13.6096V13.636C21.0313 17.2493 23.5962 21.4735 28.939 21.4735C30.9404 21.4735 32.349 20.8801 33.3285 19.9488V21.4999H37.1294V5.91356H33.3285V7.32312ZM28.9379 17.3568C27.0336 17.3568 25.4208 15.7892 25.4208 13.6634V13.6371C25.4208 11.4849 27.0336 9.91737 28.9379 9.91737C30.8422 9.91737 32.4549 11.4849 32.4549 13.6371C32.4549 15.7892 30.8422 17.3568 28.9379 17.3568Z" fill="#1F1F1F"/>
<path d="M57.0994 7.32312C56.12 6.39183 54.7114 5.79839 52.7099 5.79839C47.3672 5.79839 44.8023 10.0227 44.8023 13.6096V13.636C44.8023 17.2493 47.3672 21.4735 52.7099 21.4735C54.7114 21.4735 56.12 20.8801 57.0994 19.9488V21.4999H60.9004V5.91685H57.0994V7.32312ZM52.7088 17.3568C50.8045 17.3568 49.1918 15.7892 49.1918 13.6634V13.6371C49.1918 11.4849 50.8045 9.91737 52.7088 9.91737C54.6131 9.91737 56.2259 11.4849 56.2259 13.6371C56.2259 15.7892 54.6131 17.3568 52.7088 17.3568Z" fill="#1F1F1F"/>
<path d="M130.009 7.32312C129.029 6.39183 127.621 5.79839 125.619 5.79839C120.276 5.79839 117.711 10.0227 117.711 13.6096V13.636C117.711 17.2493 120.276 21.4735 125.619 21.4735C127.621 21.4735 129.029 20.8801 130.009 19.9488V21.4999H133.81V5.91356H130.009V7.32312ZM125.618 17.3568C123.714 17.3568 122.101 15.7892 122.101 13.6634V13.6371C122.101 11.4849 123.714 9.91737 125.618 9.91737C127.522 9.91737 129.135 11.4849 129.135 13.6371C129.135 15.7892 127.522 17.3568 125.618 17.3568Z" fill="#1F1F1F"/>
<path d="M12.3528 3.2897C11.2653 2.38803 9.87198 1.82969 6.28833 1.82969H0V21.501H4.69304V15.5304H6.83428C9.96152 15.5304 11.2696 14.9249 12.5887 13.8071C13.8465 12.731 14.6928 10.6293 14.6928 8.57582C14.6928 6.52236 13.84 4.52595 12.3528 3.2897ZM8.83685 10.785C8.17297 11.0878 7.35294 11.0878 6.86267 11.0878H4.69304V6.3666H6.66504C7.23283 6.3666 8.08998 6.3666 8.78335 6.67045C9.6001 7.02914 9.98118 7.67304 9.98118 8.69758C9.98118 9.72211 9.59573 10.4384 8.83685 10.785Z" fill="#1F1F1F"/>
</g>
<g id="10">
<path d="M133.809 0.878737V4.64889C133.809 4.76955 133.907 4.86828 134.027 4.86828H134.7C134.82 4.86828 134.918 4.967 134.918 5.08766V21.2817C134.918 21.4023 135.016 21.5011 135.136 21.5011H140.045C140.165 21.5011 140.263 21.4023 140.263 21.2817V0.878737C140.264 0.758074 140.166 0.65935 140.046 0.65935H134.028C133.907 0.65935 133.809 0.758074 133.809 0.878737Z" fill="#FE300B"/>
<path d="M159.621 11.4872H154.071C153.965 11.4872 153.874 11.5629 153.856 11.6682C153.713 12.5622 153.306 13.3673 152.717 13.9991C152.585 14.1406 152.681 14.371 152.873 14.371H159.172C159.267 14.371 159.352 14.3096 159.38 14.2185C159.63 13.4221 159.787 12.5841 159.84 11.7175C159.847 11.5925 159.746 11.4872 159.621 11.4872Z" fill="#FE300B"/>
<path d="M154.075 10.4517H159.605C159.732 10.4517 159.833 10.3431 159.823 10.2158C159.751 9.34047 159.569 8.49473 159.293 7.69287C159.262 7.60512 159.179 7.54589 159.086 7.54589H152.873C152.683 7.54589 152.583 7.77405 152.713 7.91336C153.309 8.55067 153.72 9.3646 153.859 10.2685C153.876 10.3738 153.969 10.4506 154.075 10.4506V10.4517Z" fill="#FE300B"/>
<path d="M149.485 15.4065C148.492 15.4065 147.574 15.0774 146.836 14.5224C146.723 14.4368 146.613 14.3458 146.509 14.2503C146.247 14.0112 146.013 13.7403 145.814 13.4452C145.775 13.3859 145.736 13.3256 145.7 13.2642C145.625 13.1424 145.558 13.0163 145.495 12.8857C145.433 12.7563 145.377 12.6225 145.327 12.4865C145.278 12.3504 145.234 12.2111 145.198 12.0685C145.108 11.7131 145.059 11.3413 145.059 10.9573C145.059 10.727 145.076 10.501 145.11 10.2794C145.132 10.1325 145.162 9.98766 145.198 9.84505C145.234 9.70245 145.278 9.56314 145.327 9.42712C145.377 9.2911 145.433 9.15728 145.495 9.02784C145.526 8.96312 145.559 8.8995 145.594 8.83588C145.764 8.52106 145.971 8.22818 146.209 7.96491C146.258 7.91226 146.306 7.86071 146.356 7.81025C146.556 7.60951 146.775 7.42742 147.011 7.26726C147.717 6.78791 148.569 6.50709 149.486 6.50709H158.443C158.609 6.50709 158.714 6.32939 158.635 6.1824C156.896 2.93109 153.486 0.694451 149.579 0.659349C146.232 0.629732 143.248 2.19286 141.331 4.64011C141.3 4.6796 141.284 4.72787 141.284 4.77723V17.3612C141.284 17.4106 141.3 17.4589 141.331 17.4983C143.218 19.9094 146.135 21.4736 149.398 21.5C153.502 21.534 157.061 19.1723 158.773 15.7246C158.845 15.5787 158.739 15.4065 158.578 15.4065H149.485Z" fill="#FE300B"/>
</g>
</g>
</svg>
