<svg width="56" height="30" viewBox="0 0 56 30" fill="none" xmlns="http://www.w3.org/2000/svg">
<g id="Plataforma 10 Logo">
<path id="P" d="M17.7108 3.43756C16.081 2.09309 14.0259 1.26079 8.81803 1.26079L0.304911 1.24707C0.135686 1.24707 0 1.38274 0 1.55194V28.443C0 28.6107 0.13721 28.7479 0.304911 28.7479H6.2766C6.4443 28.7479 6.58151 28.6107 6.58151 28.443V21.9112C6.58151 21.7435 6.71872 21.6063 6.88642 21.6063H9.58489C14.1586 21.6063 16.0886 20.71 18.0507 19.0561C19.9732 17.4204 21.2157 14.4037 21.2157 11.3733C21.2157 8.34292 19.9061 5.25459 17.7123 3.43909L17.7108 3.43756ZM12.9526 14.2818C12.1172 14.6949 10.3121 14.6949 9.67636 14.6949H6.90319C6.73549 14.6949 6.59828 14.5577 6.59828 14.39V8.7545C6.59828 8.58682 6.73549 8.44963 6.90319 8.44963H9.67636C10.4142 8.44963 12.0074 8.44963 12.884 8.8673C13.904 9.35204 14.3186 10.0975 14.3186 11.4419C14.3186 12.8581 13.846 13.8413 12.9526 14.2833V14.2818Z" fill="#1F1F1F"/>
<g id="10">
<path d="M21.1699 1.41429V6.4355C21.1699 6.59708 21.301 6.72818 21.4626 6.72818H22.3621C22.5237 6.72818 22.6548 6.85927 22.6548 7.02085V28.5858C22.6548 28.7474 22.786 28.8785 22.9476 28.8785H29.5153C29.6769 28.8785 29.8081 28.7474 29.8081 28.5858V1.41429C29.8065 1.25271 29.6754 1.12161 29.5138 1.12161H21.4626C21.301 1.12161 21.1699 1.25271 21.1699 1.41429Z" fill="#FE300B"/>
<path d="M55.7072 15.5405H48.2811C48.1393 15.5405 48.0158 15.6411 47.993 15.7813C47.8024 16.9718 47.2566 18.0435 46.4684 18.8849C46.2916 19.0739 46.4196 19.3803 46.6773 19.3803H55.1035C55.2316 19.3803 55.3444 19.298 55.3825 19.1776C55.7179 18.1166 55.9268 17.0008 55.9969 15.8469C56.0075 15.6807 55.8719 15.5405 55.7042 15.5405H55.7072Z" fill="#FE300B"/>
<path d="M48.2857 14.1625H55.6859C55.8551 14.1625 55.9923 14.0177 55.9771 13.8485C55.8795 12.6823 55.6371 11.5574 55.2666 10.4888C55.2255 10.3714 55.1142 10.2937 54.9907 10.2937H46.6788C46.4242 10.2937 46.29 10.597 46.4638 10.783C47.2612 11.632 47.8115 12.7159 47.9991 13.9201C48.0204 14.0603 48.1454 14.1625 48.2872 14.1625H48.2857Z" fill="#FE300B"/>
<path d="M42.1463 20.7614C40.8169 20.7614 39.5896 20.3239 38.6017 19.5846C38.4492 19.4703 38.3029 19.3498 38.1626 19.2233C37.812 18.9047 37.4994 18.545 37.2342 18.1502C37.1808 18.0709 37.129 17.9916 37.0802 17.9093C36.9811 17.7462 36.8896 17.5785 36.8073 17.4063C36.7234 17.234 36.6487 17.0557 36.5832 16.8743C36.5161 16.6929 36.4582 16.5069 36.4109 16.3179C36.2889 15.8454 36.2249 15.3484 36.2249 14.8378C36.2249 14.5314 36.2478 14.2295 36.2935 13.9353C36.324 13.7387 36.3636 13.5466 36.4124 13.3576C36.4612 13.1686 36.5192 12.9826 36.5847 12.8012C36.6518 12.6198 36.7265 12.443 36.8088 12.2692C36.85 12.1823 36.8942 12.0985 36.9399 12.0131C37.1686 11.5939 37.4446 11.2037 37.7632 10.8531C37.8272 10.783 37.8928 10.7144 37.9599 10.6473C38.2282 10.379 38.5209 10.1367 38.8365 9.92478C39.7817 9.28607 40.9221 8.91261 42.1493 8.91261H54.1339C54.3549 8.91261 54.4967 8.67481 54.3915 8.47969C52.0605 4.14749 47.4975 1.1689 42.2698 1.12165C37.7922 1.08202 33.7978 3.16428 31.2335 6.42334C31.1924 6.47517 31.171 6.53919 31.171 6.60626V23.365C31.171 23.4305 31.1924 23.4961 31.2335 23.5479C33.7582 26.7582 37.661 28.8404 42.0274 28.877C47.5188 28.9228 52.28 25.778 54.5714 21.1852C54.669 20.99 54.5272 20.7614 54.3092 20.7614H42.1448H42.1463Z" fill="#FE300B"/>
</g>
</g>
</svg>
