<svg width="146" height="24" viewBox="0 0 146 24" fill="none" xmlns="http://www.w3.org/2000/svg">
<path d="M10.6628 9.96945C12.1135 9.20921 12.9697 7.90351 12.9697 6.42521C12.9697 3.94036 10.7408 2.06691 7.78473 2.06691H0V18.4834H7.78521C10.8558 18.4834 13.1714 16.4625 13.1714 13.7823C13.1714 12.1615 12.24 10.7559 10.6628 9.96945ZM3.21358 11.3275H7.78473C8.94642 11.3275 9.85648 12.2817 9.85648 13.5001C9.85648 14.7185 8.94642 15.6727 7.78473 15.6727H3.21358V11.3275ZM7.78473 8.6177H3.21358V4.87709H7.78473C8.816 4.87709 9.65479 5.71588 9.65479 6.74715C9.65479 7.77842 8.816 8.6177 7.78473 8.6177Z" fill="black"/>
<path d="M21.7135 4.86836C17.8429 4.86836 14.6943 7.99903 14.6943 11.8473C14.6943 15.6955 17.8429 18.8664 21.7135 18.8664C25.584 18.8664 28.7326 15.7178 28.7326 11.8473C28.7326 7.97673 25.584 4.86836 21.7135 4.86836ZM24.3176 14.7821C23.6213 15.5379 22.6967 15.9544 21.7135 15.9544C20.7302 15.9544 19.8056 15.5379 19.1093 14.7821C18.3995 14.0112 18.0087 12.9687 18.0087 11.8468C18.0087 10.7248 18.3995 9.70279 19.1089 8.94012C19.8046 8.19151 20.7297 7.77939 21.7135 7.77939C22.6972 7.77939 23.6223 8.19151 24.3181 8.94012C25.0274 9.70279 25.4182 10.7355 25.4182 11.8468C25.4182 12.9581 25.0274 14.0112 24.3176 14.7821Z" fill="black"/>
<path d="M37.073 4.86836C33.2024 4.86836 30.0538 7.99903 30.0538 11.8473C30.0538 15.6955 33.2024 18.8664 37.073 18.8664C40.9435 18.8664 44.0921 15.7178 44.0921 11.8473C44.0921 7.97673 40.9435 4.86836 37.073 4.86836ZM39.6771 14.7821C38.9808 15.5379 38.0562 15.9544 37.073 15.9544C36.0897 15.9544 35.1651 15.5379 34.4688 14.7821C33.759 14.0112 33.3682 12.9687 33.3682 11.8468C33.3682 10.7248 33.759 9.70279 34.4684 8.94012C35.1641 8.19151 36.0892 7.77939 37.073 7.77939C38.0567 7.77939 38.9818 8.19151 39.6776 8.94012C40.3869 9.70279 40.7777 10.7355 40.7777 11.8468C40.7777 12.9581 40.3869 14.0112 39.6771 14.7821Z" fill="black"/>
<path d="M52.1032 11.4458L57.8807 5.09043H53.758L49.2314 10.1561V2.06643H46.0179V18.4834H49.2314V12.8286L54.3631 18.4834H58.2763L52.1032 11.4458Z" fill="black"/>
<path d="M124.998 4.85527C121.128 4.85527 117.979 7.98594 117.979 11.8342C117.979 13.6839 118.691 15.4448 119.985 16.7927C121.241 18.1023 122.922 18.8533 124.595 18.8533C126.268 18.8533 127.849 18.0606 128.582 17.3959V18.4703H131.795V11.8342C131.795 7.92097 128.81 4.85527 124.998 4.85527ZM124.998 15.9418C124.015 15.9418 123.09 15.5253 122.394 14.7695C121.684 13.9985 121.294 12.9561 121.294 11.8342C121.294 10.7122 121.684 9.69018 122.394 8.92703C123.089 8.17891 124.015 7.7663 124.998 7.7663C125.982 7.7663 126.907 8.17842 127.603 8.92703C128.312 9.6897 128.703 10.7224 128.703 11.8342C128.703 12.9459 128.312 13.9985 127.602 14.7695C126.906 15.5253 125.982 15.9418 124.998 15.9418Z" fill="black"/>
<path d="M142.658 5.07733L138.988 14.2817L135.357 5.07733H132.06L137.379 18.3753L135.729 22.5018H138.965L145.894 5.07733H142.658Z" fill="black"/>
<path d="M115.659 2.05333L111.053 13.8187L107.327 2.15467L107.295 2.05333H103.837L100.06 13.8187L95.5088 2.14594L95.473 2.05333H92.16L98.3195 18.4703H101.609L105.555 6.67006L109.449 18.3704L109.483 18.4703H112.772L118.973 2.05333H115.659Z" fill="black"/>
<path d="M84.1949 24H62.2351C60.9173 24 60.0751 22.5959 60.6953 21.4332L65.0691 13.232C65.4798 12.4621 65.4798 11.5379 65.0691 10.768L60.6953 2.56679C60.0751 1.40412 60.9178 0 62.2351 0H84.1949C85.2688 0 86.2337 0.656 86.6293 1.6543L90.3442 11.0361C90.5896 11.6553 90.5896 12.3447 90.3442 12.9639L86.6293 22.3457C86.2342 23.344 85.2688 24 84.1949 24Z" fill="#FE5E00"/>
<path d="M76.065 4.94303C72.1944 4.94303 69.0458 8.0737 69.0458 11.9219C69.0458 13.7716 69.7581 15.5326 71.0516 16.8805C72.3079 18.1901 73.9884 18.9411 75.6616 18.9411C77.3348 18.9411 78.9154 18.1484 79.6485 17.4836V18.5581H82.8621V11.9219C82.8621 8.00873 79.8764 4.94303 76.065 4.94303ZM76.065 16.0296C75.0817 16.0296 74.1571 15.6131 73.4608 14.8572C72.751 14.0863 72.3602 13.0439 72.3602 11.9219C72.3602 10.8 72.751 9.77794 73.4603 9.01479C74.1561 8.26667 75.0812 7.85406 76.065 7.85406C77.0487 7.85406 77.9738 8.26618 78.6696 9.01479C79.3789 9.77745 79.7697 10.8102 79.7697 11.9219C79.7697 13.0337 79.3789 14.0863 78.6691 14.8572C77.9728 15.6131 77.0482 16.0296 76.065 16.0296Z" fill="white"/>
</svg>
